# xmcd CD database file generated by freedbAccess_ocx
#
# Track frame offsets:
#       150
#       15007
#       27807
#       40330
#       50772
#       69805
#       87297
#       103145
#       118287
#       135737
#       155170
#
# Disc length: 2291 seconds
#
# Revision: 0
# Processed by: cddbd v1.4PL0 Copyright (c) Steve Scherf et al.
# Submitted via: CDnGo 1.95
#
DISCID=8d08f10b
DTITLE=Terry Clark - Love Heals
DYEAR=1998
DGENRE=Contemporary Christian
TTITLE0=Leaning On The Everlasting Arms
TTITLE1=Daybreak
TTITLE2=Everlasting
TTITLE3=John 3:16
TTITLE4=Love Heals
TTITLE5=Oh What Love Can Do
TTITLE6=Simple Answer
TTITLE7=Come Holy Spirit
TTITLE8=Safe
TTITLE9=Thats Why I Can Sing
TTITLE10=Every Step
EXTD=
EXTT0=
EXTT1=
EXTT2=
EXTT3=
EXTT4=
EXTT5=
EXTT6=
EXTT7=
EXTT8=
EXTT9=
EXTT10=
PLAYORDER=
